<?xml version="1.0" encoding="UTF-8"?>
<svg xmlns="http://www.w3.org/2000/svg" xmlns:xlink="http://www.w3.org/1999/xlink" width="20pt" height="20pt" viewBox="0 0 20 20" version="1.1">
<g id="surface1">
<path style=" stroke:none;fill-rule:nonzero;fill:rgb(0%,0%,0%);fill-opacity:1;" d="M 9.394531 0.0273438 C 7.285156 0.21875 5.335938 1.484375 4.28125 3.347656 C 3.882812 4.058594 3.542969 5.078125 3.492188 5.722656 C 3.472656 5.957031 3.484375 6.019531 3.5625 6.167969 C 3.675781 6.390625 3.8125 6.488281 4.027344 6.511719 C 4.371094 6.546875 4.625 6.304688 4.667969 5.90625 C 4.933594 3.601562 6.808594 1.648438 9.132812 1.269531 C 9.730469 1.167969 10.730469 1.203125 11.277344 1.34375 C 12.3125 1.605469 13.160156 2.097656 13.890625 2.863281 C 14.652344 3.660156 15.125 4.585938 15.316406 5.664062 C 15.359375 5.894531 15.421875 6.117188 15.460938 6.167969 C 15.59375 6.347656 15.730469 6.421875 15.929688 6.421875 C 16.1875 6.421875 16.390625 6.292969 16.492188 6.066406 C 16.5625 5.910156 16.5625 5.867188 16.523438 5.613281 C 16.125 3.136719 14.4375 1.121094 12.113281 0.351562 C 11.222656 0.0546875 10.296875 -0.0546875 9.394531 0.0273438 Z M 9.394531 0.0273438 "/>
<path style=" stroke:none;fill-rule:nonzero;fill:rgb(0%,0%,0%);fill-opacity:1;" d="M 1.878906 7.855469 C 1.265625 7.960938 0.726562 8.425781 0.546875 9.015625 C 0.328125 9.71875 0.566406 10.460938 1.152344 10.890625 C 1.28125 10.984375 1.398438 11.089844 1.414062 11.125 C 1.453125 11.21875 2.914062 18.164062 2.960938 18.476562 C 3.0625 19.171875 3.605469 19.753906 4.316406 19.941406 C 4.519531 19.992188 5.238281 20 10.097656 20 C 14.910156 20 15.675781 19.992188 15.894531 19.941406 C 16.621094 19.769531 17.171875 19.164062 17.265625 18.4375 C 17.285156 18.277344 17.644531 16.523438 18.0625 14.542969 L 18.824219 10.945312 L 19.042969 10.726562 C 19.355469 10.414062 19.503906 10.082031 19.523438 9.640625 C 19.554688 9.003906 19.292969 8.46875 18.789062 8.132812 C 18.296875 7.804688 19.144531 7.832031 10.117188 7.828125 C 5.5 7.824219 2 7.835938 1.878906 7.855469 Z M 18.070312 9.007812 C 18.332031 9.132812 18.460938 9.40625 18.390625 9.6875 C 18.351562 9.835938 18.253906 9.945312 17.988281 10.128906 C 17.933594 10.171875 17.859375 10.257812 17.832031 10.324219 C 17.785156 10.425781 16.242188 17.734375 16.152344 18.261719 C 16.117188 18.480469 15.964844 18.695312 15.78125 18.789062 C 15.628906 18.867188 15.570312 18.867188 10.121094 18.867188 C 6.316406 18.867188 4.582031 18.855469 4.503906 18.824219 C 4.269531 18.738281 4.09375 18.484375 4.042969 18.164062 C 4.027344 18.066406 3.65625 16.285156 3.21875 14.203125 C 2.617188 11.347656 2.398438 10.390625 2.339844 10.304688 C 2.292969 10.242188 2.152344 10.144531 2.011719 10.082031 C 1.875 10.019531 1.738281 9.925781 1.703125 9.871094 C 1.492188 9.554688 1.589844 9.175781 1.921875 9.011719 C 2.039062 8.953125 2.746094 8.945312 9.992188 8.945312 C 17.25 8.945312 17.949219 8.949219 18.070312 9.007812 Z M 18.070312 9.007812 "/>
<path style=" stroke:none;fill-rule:nonzero;fill:rgb(0%,0%,0%);fill-opacity:1;" d="M 5.425781 11.792969 L 5.3125 11.90625 L 5.3125 16.878906 L 5.40625 16.972656 C 5.59375 17.160156 5.988281 17.132812 6.125 16.921875 C 6.183594 16.828125 6.191406 16.613281 6.203125 14.53125 C 6.210938 13.273438 6.203125 12.167969 6.191406 12.074219 C 6.152344 11.8125 6 11.679688 5.742188 11.679688 C 5.570312 11.679688 5.523438 11.695312 5.425781 11.792969 Z M 5.425781 11.792969 "/>
<path style=" stroke:none;fill-rule:nonzero;fill:rgb(0%,0%,0%);fill-opacity:1;" d="M 8.414062 11.71875 C 8.195312 11.804688 8.203125 11.722656 8.203125 14.394531 C 8.203125 16.84375 8.203125 16.859375 8.285156 16.949219 C 8.53125 17.210938 8.96875 17.132812 9.0625 16.808594 C 9.09375 16.707031 9.101562 15.9375 9.09375 14.285156 L 9.082031 11.90625 L 8.953125 11.792969 C 8.855469 11.703125 8.792969 11.679688 8.660156 11.683594 C 8.570312 11.683594 8.457031 11.699219 8.414062 11.71875 Z M 8.414062 11.71875 "/>
<path style=" stroke:none;fill-rule:nonzero;fill:rgb(0%,0%,0%);fill-opacity:1;" d="M 11.308594 11.726562 C 11.265625 11.75 11.199219 11.804688 11.164062 11.851562 C 11.101562 11.925781 11.09375 12.121094 11.09375 14.382812 L 11.09375 16.835938 L 11.203125 16.957031 C 11.410156 17.1875 11.851562 17.125 11.953125 16.851562 C 11.980469 16.785156 11.988281 15.867188 11.984375 14.328125 L 11.972656 11.90625 L 11.84375 11.792969 C 11.746094 11.703125 11.679688 11.679688 11.550781 11.679688 C 11.460938 11.679688 11.351562 11.703125 11.308594 11.726562 Z M 11.308594 11.726562 "/>
<path style=" stroke:none;fill-rule:nonzero;fill:rgb(0%,0%,0%);fill-opacity:1;" d="M 14.183594 11.734375 C 13.984375 11.84375 13.988281 11.800781 13.984375 14.402344 L 13.984375 16.835938 L 14.097656 16.960938 C 14.203125 17.078125 14.234375 17.089844 14.433594 17.089844 C 14.632812 17.089844 14.664062 17.078125 14.769531 16.960938 L 14.882812 16.835938 L 14.882812 11.945312 L 14.75 11.8125 C 14.640625 11.703125 14.589844 11.679688 14.449219 11.679688 C 14.355469 11.683594 14.234375 11.707031 14.183594 11.734375 Z M 14.183594 11.734375 "/>
</g>
</svg>
