<?xml version="1.0" encoding="UTF-8"?>
<svg xmlns="http://www.w3.org/2000/svg" xmlns:xlink="http://www.w3.org/1999/xlink" width="95pt" height="30pt" viewBox="0 0 95 30" version="1.1">
<g id="surface1">
<path style=" stroke:none;fill-rule:nonzero;fill:rgb(0%,0%,0%);fill-opacity:1;" d="M 78.816406 2.828125 C 80.664062 2.890625 81.011719 2.972656 81.460938 3.363281 L 81.964844 3.820312 L 81.480469 3.242188 C 80.988281 2.683594 80.949219 2.683594 78.839844 2.726562 L 76.6875 2.765625 Z M 78.816406 2.828125 "/>
<path style=" stroke:none;fill-rule:nonzero;fill:rgb(0%,0%,0%);fill-opacity:1;" d="M 33.722656 4.644531 L 32.21875 6.195312 L 41.214844 6.195312 L 42.398438 4.9375 C 44.265625 2.953125 44.488281 3.097656 39.570312 3.097656 L 35.226562 3.097656 Z M 33.722656 4.644531 "/>
<path style=" stroke:none;fill-rule:nonzero;fill:rgb(0%,0%,0%);fill-opacity:1;" d="M 73.839844 3.261719 C 73.539062 3.488281 71.300781 6.132812 71.300781 6.273438 C 71.300781 6.339844 73.316406 6.398438 75.789062 6.398438 L 80.28125 6.398438 L 78.796875 8.097656 L 77.292969 9.765625 L 77.234375 8.199219 L 77.175781 6.605469 L 73.941406 6.605469 L 73.941406 19.238281 L 75.546875 17.710938 C 77.074219 16.289062 77.175781 16.144531 77.175781 15.339844 C 77.191406 14.511719 77.355469 14.289062 80.546875 10.695312 C 82.390625 8.628906 83.898438 6.875 83.898438 6.789062 C 83.898438 6.730469 83.53125 6.234375 83.085938 5.722656 C 82.191406 4.707031 82.007812 4.253906 82.738281 4.875 L 83.1875 5.265625 L 82.796875 4.808594 C 82.59375 4.542969 82.351562 4.375 82.269531 4.4375 C 82.191406 4.480469 81.824219 4.210938 81.460938 3.820312 L 80.769531 3.097656 L 77.417969 3.097656 C 75.546875 3.097656 73.964844 3.179688 73.839844 3.261719 Z M 73.839844 3.261719 "/>
<path style=" stroke:none;fill-rule:nonzero;fill:rgb(0%,0%,0%);fill-opacity:1;" d="M 16.578125 6.027344 C 18.019531 7.535156 20.09375 9.703125 21.1875 10.835938 L 23.175781 12.902344 L 27.75 8.15625 L 32.320312 3.40625 L 30.246094 3.34375 L 28.15625 3.28125 L 25.65625 5.820312 L 23.160156 8.359375 L 20.660156 5.820312 L 18.183594 3.304688 L 13.933594 3.304688 Z M 16.578125 6.027344 "/>
<path style=" stroke:none;fill-rule:nonzero;fill:rgb(0%,0%,0%);fill-opacity:1;" d="M 46.84375 5.203125 C 47.839844 6.253906 49.261719 7.699219 49.992188 8.421875 L 51.335938 9.726562 L 53.527344 9.664062 L 55.703125 9.601562 L 52.714844 6.441406 L 49.726562 3.304688 L 45.015625 3.304688 Z M 46.84375 5.203125 "/>
<path style=" stroke:none;fill-rule:nonzero;fill:rgb(0%,0%,0%);fill-opacity:1;" d="M 52.917969 4.746094 L 54.320312 6.195312 L 62.769531 6.195312 L 62.769531 3.304688 L 51.515625 3.304688 Z M 52.917969 4.746094 "/>
<path style=" stroke:none;fill-rule:nonzero;fill:rgb(0%,0%,0%);fill-opacity:1;" d="M 63.988281 6.195312 L 63.988281 9.085938 L 67.035156 9.085938 L 67.035156 6.195312 L 69.800781 6.195312 L 70.589844 5.222656 C 71.039062 4.683594 71.570312 4.027344 71.769531 3.78125 L 72.136719 3.304688 L 63.988281 3.304688 Z M 63.988281 6.195312 "/>
<path style=" stroke:none;fill-rule:nonzero;fill:rgb(0%,0%,0%);fill-opacity:1;" d="M 44.121094 7.371094 C 43.003906 8.589844 42.050781 9.683594 42.011719 9.765625 C 41.929688 9.972656 51.007812 18.828125 51.214844 18.746094 C 51.273438 18.707031 52.230469 17.734375 53.304688 16.578125 L 55.253906 14.492188 L 54.097656 13.335938 L 52.917969 12.199219 L 51.964844 13.152344 L 51.007812 14.101562 L 48.714844 11.808594 L 46.417969 9.515625 L 47.414062 8.484375 L 48.425781 7.453125 L 47.289062 6.273438 L 46.175781 5.117188 Z M 44.121094 7.371094 "/>
<path style=" stroke:none;fill-rule:nonzero;fill:rgb(0%,0%,0%);fill-opacity:1;" d="M 83.695312 6.070312 C 83.695312 6.109375 83.855469 6.273438 84.058594 6.417969 C 84.363281 6.6875 84.382812 6.667969 84.121094 6.339844 C 83.855469 6.007812 83.695312 5.902344 83.695312 6.070312 Z M 83.695312 6.070312 "/>
<path style=" stroke:none;fill-rule:nonzero;fill:rgb(0%,0%,0%);fill-opacity:1;" d="M 56.066406 12.71875 C 56.066406 16.183594 56.148438 18.992188 56.230469 18.953125 C 56.332031 18.910156 57.101562 18.335938 57.953125 17.652344 L 59.5 16.414062 L 59.519531 11.726562 C 59.519531 9.164062 59.460938 6.917969 59.398438 6.730469 C 59.296875 6.464844 58.949219 6.398438 57.671875 6.398438 L 56.066406 6.398438 Z M 56.066406 12.71875 "/>
<path style=" stroke:none;fill-rule:nonzero;fill:rgb(0%,0%,0%);fill-opacity:1;" d="M 16.453125 12.941406 L 16.453125 19.386719 L 17.589844 18.3125 C 18.222656 17.710938 18.851562 17.28125 18.972656 17.300781 C 19.09375 17.34375 19.136719 17.300781 19.054688 17.21875 C 18.972656 17.15625 19.09375 16.847656 19.296875 16.558594 C 19.664062 16.101562 19.707031 15.710938 19.707031 12.925781 L 19.707031 9.804688 L 18.082031 8.15625 L 16.453125 6.503906 Z M 16.453125 12.941406 "/>
<path style=" stroke:none;fill-rule:nonzero;fill:rgb(0%,0%,0%);fill-opacity:1;" d="M 28.09375 8.238281 L 26.652344 9.804688 L 26.613281 12.964844 L 26.589844 16.125 L 28.054688 17.671875 C 28.867188 18.519531 29.597656 19.199219 29.699219 19.199219 C 29.777344 19.199219 29.863281 16.371094 29.863281 12.902344 C 29.863281 9.433594 29.800781 6.628906 29.71875 6.628906 C 29.617188 6.648438 28.90625 7.371094 28.09375 8.238281 Z M 28.09375 8.238281 "/>
<path style=" stroke:none;fill-rule:nonzero;fill:rgb(0%,0%,0%);fill-opacity:1;" d="M 31.691406 12.925781 L 31.691406 19.238281 L 33.316406 17.710938 L 34.917969 16.207031 L 34.9375 14.390625 L 34.9375 12.59375 L 37.785156 12.59375 L 37.785156 15.894531 C 37.785156 17.710938 37.84375 19.199219 37.90625 19.199219 C 37.984375 19.199219 38.757812 18.539062 39.632812 17.734375 L 41.238281 16.269531 L 41.238281 6.605469 L 37.785156 6.605469 L 37.785156 9.496094 L 35.144531 9.496094 L 35.144531 6.605469 L 31.691406 6.605469 Z M 31.691406 12.925781 "/>
<path style=" stroke:none;fill-rule:nonzero;fill:rgb(0%,0%,0%);fill-opacity:1;" d="M 61.550781 10.628906 L 60.25 11.976562 L 69.1875 11.976562 L 71.789062 9.292969 L 62.851562 9.292969 Z M 61.550781 10.628906 "/>
<path style=" stroke:none;fill-rule:nonzero;fill:rgb(0%,0%,0%);fill-opacity:1;" d="M 6.257812 10.671875 C 6.582031 11.105469 7.066406 11.644531 7.3125 11.871094 L 7.761719 12.285156 L 4.8125 12.386719 L 1.890625 12.492188 L 11.519531 18.746094 C 16.820312 22.195312 21.308594 25.039062 21.496094 25.105469 C 21.675781 25.167969 20.113281 23.511719 17.980469 21.449219 C 15.863281 19.367188 13.246094 16.804688 12.1875 15.753906 L 10.257812 13.828125 L 14.628906 13.828125 L 14.628906 9.910156 L 5.644531 9.910156 Z M 6.257812 10.671875 "/>
<path style=" stroke:none;fill-rule:nonzero;fill:rgb(0%,0%,0%);fill-opacity:1;" d="M 81.765625 11.707031 L 80.421875 13.316406 L 82.578125 13.378906 C 83.796875 13.398438 84.710938 13.523438 84.667969 13.625 C 84.628906 13.726562 82.292969 16.289062 79.449219 19.304688 C 76.625 22.316406 74.347656 24.859375 74.410156 24.921875 C 74.472656 24.980469 78.714844 22.113281 83.816406 18.5625 L 93.097656 12.078125 L 92.125 11.890625 C 91.453125 11.765625 90.925781 11.789062 90.480469 11.953125 C 89.746094 12.222656 87.757812 12.199219 87.757812 11.9375 C 87.757812 11.847656 88.082031 11.398438 88.488281 10.941406 L 89.21875 10.117188 L 83.105469 10.117188 Z M 81.765625 11.707031 "/>
<path style=" stroke:none;fill-rule:nonzero;fill:rgb(0%,0%,0%);fill-opacity:1;" d="M 1.039062 12.46875 C 1.140625 12.574219 12.796875 20.085938 13.203125 20.335938 C 13.40625 20.4375 13.445312 20.4375 13.304688 20.296875 C 13.023438 19.984375 1.28125 12.386719 1.097656 12.386719 C 1.015625 12.386719 0.996094 12.429688 1.039062 12.46875 Z M 1.039062 12.46875 "/>
<path style=" stroke:none;fill-rule:nonzero;fill:rgb(0%,0%,0%);fill-opacity:1;" d="M 63.785156 14.222656 L 63.785156 16.0625 L 65.246094 17.425781 L 66.710938 18.785156 L 72.746094 18.785156 L 72.683594 17.179688 L 72.625 15.585938 L 69.839844 15.527344 L 67.035156 15.464844 L 67.035156 12.386719 L 63.785156 12.386719 Z M 63.785156 14.222656 "/>
<path style=" stroke:none;fill-rule:nonzero;fill:rgb(0%,0%,0%);fill-opacity:1;" d="M 14.527344 21.160156 C 14.75 21.347656 15.113281 21.59375 15.335938 21.699219 L 15.742188 21.90625 L 15.335938 21.574219 C 15.113281 21.390625 14.75 21.140625 14.527344 21.039062 L 14.117188 20.832031 Z M 14.527344 21.160156 "/>
<path style=" stroke:none;fill-rule:nonzero;fill:rgb(0%,0%,0%);fill-opacity:1;" d="M 16.757812 22.609375 C 16.984375 22.792969 17.347656 23.042969 17.570312 23.144531 L 17.980469 23.351562 L 17.570312 23.019531 C 17.347656 22.832031 16.984375 22.585938 16.757812 22.484375 L 16.351562 22.277344 Z M 16.757812 22.609375 "/>
<path style=" stroke:none;fill-rule:nonzero;fill:rgb(0%,0%,0%);fill-opacity:1;" d="M 18.992188 24.050781 C 19.214844 24.238281 19.582031 24.488281 19.808594 24.589844 L 20.210938 24.796875 L 19.808594 24.464844 C 19.582031 24.28125 19.214844 24.03125 18.992188 23.925781 L 18.589844 23.722656 Z M 18.992188 24.050781 "/>
<path style=" stroke:none;fill-rule:nonzero;fill:rgb(0%,0%,0%);fill-opacity:1;" d="M 21.226562 25.496094 C 21.453125 25.683594 21.816406 25.929688 22.042969 26.035156 L 22.445312 26.242188 L 22.042969 25.910156 C 21.816406 25.722656 21.453125 25.476562 21.226562 25.375 L 20.820312 25.167969 Z M 21.226562 25.496094 "/>
</g>
</svg>
