<?xml version="1.0" ?><!DOCTYPE svg  PUBLIC '-//W3C//DTD SVG 1.1//EN'  'http://www.w3.org/Graphics/SVG/1.1/DTD/svg11.dtd'><svg enable-background="new 0 0 64 64" height="64px" id="Layer_1" version="1.1" viewBox="0 0 64 64" width="64px" xml:space="preserve" xmlns="http://www.w3.org/2000/svg" xmlns:xlink="http://www.w3.org/1999/xlink"><g><path d="M10.97,20.17h13.74c2.227,0,1.259-2.971,1.259-2.971L21.116,0.911c-0.466-1.562-1.937-0.835-2.692-0.335   c-5.257,3.921-8.892,9.842-9.723,16.619C8.695,17.257,8.389,20.17,10.97,20.17z" fill="#241F20"/><path d="M55.48,27.167c-0.012-2.887-2.8-3.146-3.596-3.16H10.97c-2.27,0-2.353,1.787-2.307,2.454   c1.273,11.371,11.289,20.231,23.464,20.231C44.046,46.692,53.877,38.194,55.48,27.167z" fill="#241F20"/><circle cx="15.976" cy="56.579" fill="#241F20" r="7.458"/><circle cx="48.023" cy="56.579" fill="#241F20" r="7.458"/></g></svg>