<?xml version="1.0" ?><!DOCTYPE svg  PUBLIC '-//W3C//DTD SVG 1.1//EN'  'http://www.w3.org/Graphics/SVG/1.1/DTD/svg11.dtd'><svg enable-background="new 0 0 48 48" height="48px" version="1.1" viewBox="0 0 48 48" width="48px" xml:space="preserve" xmlns="http://www.w3.org/2000/svg" xmlns:xlink="http://www.w3.org/1999/xlink"><g id="Layer_1"/><g id="Layer_2"><g><path d="M17.629,33.369c0.271,1.221,0.616,2.299,1.054,3.098h10.738c0.448-0.789,0.8-1.871,1.078-3.098H17.629z"/><path d="M41.764,35.461l-3.092,0.938c0.425,0.787,0.858,1.559,1.298,2.297c0.004,0.008,0.008,0.014,0.012,0.021l2.33-0.623    c-0.023-0.008-0.043-0.006-0.067-0.014C42.131,37.279,41.966,36.398,41.764,35.461z"/><g><path d="M6.138,35.543c-0.187,0.881-0.343,1.715-0.45,2.473l2.544,0.68c0.411-0.691,0.815-1.414,1.215-2.148L6.138,35.543z"/><path d="M41.115,32.74c-2.088-8.068-6.018-18.473-6.877-20.716c-0.289-0.757-0.612-1.379-0.617-1.388     c-0.236-0.313-0.54-0.625-0.88-0.829c-0.686-0.412-1.748-0.503-1.748-0.503l0.07-0.021h-2.289h-1.156h-0.704     c-0.484,1.131-1.606,1.923-2.914,1.923c-1.309,0-2.431-0.792-2.915-1.923H20.33h-0.837h-2.54l0.02,0.021     c0,0-1.041-0.034-1.915,0.616c-0.873,0.649-1.127,1.376-1.195,1.6c0,0-0.219,0.562-0.58,1.52l-2.02,5.53     c-1.492,4.215-3.296,9.63-4.482,14.253l3.979,1.207c2.655-5.293,4.81-10.761,5.568-12.747l0.295-0.783v0.067l0.007-0.039     c0,0-0.101,5.071,0.478,9.735h13.921c0.334-2.654,0.448-5.449,0.482-7.376l0.008-2.445l0.109,0.309l-0.05-0.25     c0,0,2.499,6.8,5.786,13.38L41.115,32.74z"/></g></g></g></svg>