<?xml version="1.0" ?><!DOCTYPE svg  PUBLIC '-//W3C//DTD SVG 1.1//EN'  'http://www.w3.org/Graphics/SVG/1.1/DTD/svg11.dtd'><svg enable-background="new 0 0 64 64" height="64px" id="Слой_3" version="1.1" viewBox="0 0 64 64" width="64px" xml:space="preserve" xmlns="http://www.w3.org/2000/svg" xmlns:xlink="http://www.w3.org/1999/xlink"><path d="  M13.78,40.35c-0.701,1.219-1.63,0.684-2.333,1.904c-0.702,1.219,0.228,1.754-0.476,2.975c-0.702,1.223-1.633,0.688-2.334,1.906" fill="none" stroke="#1B1D1E" stroke-linecap="round" stroke-linejoin="round" stroke-miterlimit="10" stroke-width="2.7"/><path d="  M31.801,10.182c0.49,0,0.887,0.397,0.887,0.888c0,0.491-0.396,0.889-0.887,0.889c-0.492,0-0.889-0.397-0.889-0.889" fill="none" stroke="#1B1D1E" stroke-linecap="round" stroke-linejoin="round" stroke-miterlimit="10" stroke-width="2.7"/><line fill="none" stroke="#1B1D1E" stroke-linecap="round" stroke-linejoin="round" stroke-miterlimit="10" stroke-width="2.7" x1="54.617" x2="51.252" y1="42.617" y2="40.508"/><line fill="none" stroke="#1B1D1E" stroke-linecap="round" stroke-linejoin="round" stroke-miterlimit="10" stroke-width="2.7" x1="39.26" x2="41.369" y1="54.484" y2="51.119"/><path d="  M24.614,20.192c0.816,0.945,1.352,1.977,1.558,2.88c0.207,0.903,0.083,1.678-0.418,2.11c-1.003,0.866-3.139,0.036-4.771-1.854  c-0.797-0.923-1.326-1.927-1.543-2.813c-0.227-0.932-0.109-1.733,0.404-2.175C20.846,17.472,22.983,18.303,24.614,20.192z" fill="none" stroke="#1B1D1E" stroke-linecap="round" stroke-linejoin="round" stroke-miterlimit="10" stroke-width="2.7"/><line fill="none" stroke="#1B1D1E" stroke-linecap="round" stroke-linejoin="round" stroke-miterlimit="10" stroke-width="2.7" x1="26.195" x2="27.522" y1="23.197" y2="30.363"/><line fill="none" stroke="#1B1D1E" stroke-linecap="round" stroke-linejoin="round" stroke-miterlimit="10" stroke-width="2.7" x1="19.432" x2="20.696" y1="20.507" y2="27.329"/><polyline fill="none" points="  21.7,38.105 20.505,31.663 28.486,30.183 29.682,36.627 " stroke="#1B1D1E" stroke-linecap="round" stroke-linejoin="round" stroke-miterlimit="10" stroke-width="2.7"/><polyline fill="none" points="  31.268,39.617 33.369,50.953 23.39,52.803 21.29,41.465 " stroke="#1B1D1E" stroke-linecap="round" stroke-linejoin="round" stroke-miterlimit="10" stroke-width="2.7"/><polyline fill="none" points="  27.435,40.324 20.756,41.563 20.168,38.387 31.211,36.342 31.801,39.518 31.268,39.615 " stroke="#1B1D1E" stroke-linecap="round" stroke-linejoin="round" stroke-miterlimit="10" stroke-width="2.7"/><path d="  M47.096,24.653c1.846,0.758,2.465,2.761,1.383,4.473l-2.861,4.523c-1.082,1.711-3.457,2.486-5.303,1.729" fill="none" stroke="#1B1D1E" stroke-linecap="round" stroke-linejoin="round" stroke-miterlimit="10" stroke-width="2.7"/><path d="  M36.063,32.649c0.469,0.804,1.172,1.464,2.023,1.814" fill="none" stroke="#1B1D1E" stroke-linecap="round" stroke-linejoin="round" stroke-miterlimit="10" stroke-width="2.7"/><path d="  M40.789,22.066c-1.613-0.662-3.229,0.012-3.896,1.514" fill="none" stroke="#1B1D1E" stroke-linecap="round" stroke-linejoin="round" stroke-miterlimit="10" stroke-width="2.7"/><line fill="none" stroke="#1B1D1E" stroke-linecap="round" stroke-linejoin="round" stroke-miterlimit="10" stroke-width="2.7" x1="38.086" x2="40.314" y1="34.463" y2="35.377"/><line fill="none" stroke="#1B1D1E" stroke-linecap="round" stroke-linejoin="round" stroke-miterlimit="10" stroke-width="2.7" x1="40.789" x2="47.096" y1="22.066" y2="24.653"/><line fill="none" stroke="#1B1D1E" stroke-linecap="round" stroke-linejoin="round" stroke-miterlimit="10" stroke-width="2.7" x1="33.207" x2="36.891" y1="32.56" y2="23.581"/><polyline fill="none" points="  48.809,28.469 43.936,40.35 36.053,37.115 " stroke="#1B1D1E" stroke-linecap="round" stroke-linejoin="round" stroke-miterlimit="10" stroke-width="2.7"/><polygon fill="none" points="  51.252,13.306 45.799,11.07 40.789,22.066 47.096,24.653 " stroke="#1B1D1E" stroke-linecap="round" stroke-linejoin="round" stroke-miterlimit="10" stroke-width="2.7"/></svg>