<?xml version="1.0" ?><!DOCTYPE svg  PUBLIC '-//W3C//DTD SVG 1.1//EN'  'http://www.w3.org/Graphics/SVG/1.1/DTD/svg11.dtd'><svg enable-background="new 0 0 50 50" height="50px" id="Layer_1" version="1.1" viewBox="0 0 50 50" width="50px" xml:space="preserve" xmlns="http://www.w3.org/2000/svg" xmlns:xlink="http://www.w3.org/1999/xlink"><polyline fill="none" points="20,23 2,23 2,14   48,14 48,23 30,23 " stroke="#000000" stroke-linecap="round" stroke-miterlimit="10" stroke-width="2"/><rect fill="none" height="34" stroke="#000000" stroke-linecap="round" stroke-miterlimit="10" stroke-width="2" width="10" x="20" y="14"/><rect fill="none" height="50" width="50"/><path d="M20,23H4v25h42V23H30" fill="none" stroke="#000000" stroke-linecap="round" stroke-miterlimit="10" stroke-width="2"/><path d="  M25,13c0,0-3.582,0-8,0s-9-2.581-9-7c0-1.828,0.878-4,4.319-4C19.236,2,19.363,13,25,13z" fill="none" stroke="#000000" stroke-linecap="round" stroke-linejoin="round" stroke-miterlimit="10" stroke-width="2"/><path d="  M25,13c0,0,3.582,0,8,0s9-2.581,9-7c0-1.828-0.878-4-4.319-4C30.764,2,30.637,13,25,13z" fill="none" stroke="#000000" stroke-linecap="round" stroke-linejoin="round" stroke-miterlimit="10" stroke-width="2"/></svg>