<?xml version="1.0" ?><svg id="Icons" style="enable-background:new 0 0 32 32;" version="1.1" viewBox="0 0 32 32" xml:space="preserve" xmlns="http://www.w3.org/2000/svg" xmlns:xlink="http://www.w3.org/1999/xlink"><style type="text/css">
	.st0{fill:none;stroke:#000000;stroke-width:2;stroke-linecap:round;stroke-linejoin:round;stroke-miterlimit:10;}
</style><path d="M29.9,9.6C29.7,9.2,29.4,9,29,9h-4.3c-0.8-2.6-3.1-4.6-5.9-5c-2-0.2-4,0.4-5.5,1.7C11.9,7.1,11,9,11,11  c0,1.8,0.7,3.4,1.8,4.7c-0.7,0.2-1.4,0.2-2.1,0.1c-1.6-0.3-3.1-1-4.4-2l-0.8-0.6c-0.3-0.2-0.7-0.3-1-0.1C4.2,13.3,4,13.6,4,14v8  c0,0.1,0,0.2,0,0.2c1.1,4.2,4,6.8,8,6.8h6.8c3.7,0,6.8-2.7,7.2-6.2c0.3-2.7-1-5.2-3.2-6.7c0.4-0.4,0.7-0.7,1-1.2  c1.9-0.2,3.6-1.2,4.8-2.7l1.2-1.6C30,10.3,30.1,9.9,29.9,9.6z M16,26c-4.7,0-5.9-3.5-5.9-3.7c-0.1-0.4,0-0.8,0.3-1.1  c0.6-0.5,3.7-3.3,5.7-3.3c2.2,0,4,1.8,4,4S18.2,26,16,26z M21,12c0,0.6-0.4,1-1,1s-1-0.4-1-1V9c0-0.6,0.4-1,1-1s1,0.4,1,1V12z"/></svg>