<?xml version="1.0" ?><svg data-name="Layer 2" id="Layer_2" viewBox="0 0 250 250" xmlns="http://www.w3.org/2000/svg"><title/><path d="M124.86,144.25H125c21.23,0,45.47-34,52.4-44.49,14.07-21.21,29.1-52.58,29.1-77a4,4,0,0,0-8,0c0,19-10.64,46.77-27.77,72.59-16.2,24.42-34.53,40.84-45.66,40.91-24.74-1-73.57-69.42-73.57-112.5a4,4,0,0,0-8,0c0,20.46,11,49.64,28.74,76.15C90.46,127.15,110.13,143.73,124.86,144.25Z"/><path d="M125,145.25a17,17,0,1,0,17,17A17,17,0,0,0,125,145.25Zm0,26a9,9,0,1,1,9-9A9,9,0,0,1,125,171.25Z"/><path d="M125,181.25a12.5,12.5,0,1,0,12.5,12.5A12.52,12.52,0,0,0,125,181.25Zm0,17a4.5,4.5,0,1,1,4.5-4.5A4.51,4.51,0,0,1,125,198.25Z"/><path d="M125,209.25a11,11,0,1,0,11,11A11,11,0,0,0,125,209.25Zm0,14a3,3,0,1,1,3-3A3,3,0,0,1,125,223.25Z"/><path d="M87.5,128.25a16,16,0,1,0,16,16A16,16,0,0,0,87.5,128.25Zm0,24a8,8,0,1,1,8-8A8,8,0,0,1,87.5,152.25Z"/><path d="M87.5,161.48a11.85,11.85,0,1,0,11.85,11.85A11.86,11.86,0,0,0,87.5,161.48Zm0,15.69a3.85,3.85,0,1,1,3.85-3.84A3.85,3.85,0,0,1,87.5,177.17Z"/><path d="M87.5,187.33A10.46,10.46,0,1,0,98,197.79,10.47,10.47,0,0,0,87.5,187.33Zm0,12.92A2.46,2.46,0,1,1,90,197.79,2.46,2.46,0,0,1,87.5,200.25Z"/><path d="M164.5,127.25a16,16,0,1,0,16,16A16,16,0,0,0,164.5,127.25Zm0,24a8,8,0,1,1,8-8A8,8,0,0,1,164.5,151.25Z"/><path d="M164.5,160.48a11.85,11.85,0,1,0,11.85,11.85A11.86,11.86,0,0,0,164.5,160.48Zm0,15.69a3.85,3.85,0,1,1,3.85-3.84A3.85,3.85,0,0,1,164.5,176.17Z"/><path d="M164.5,186.33A10.46,10.46,0,1,0,175,196.79,10.47,10.47,0,0,0,164.5,186.33Zm0,12.92a2.46,2.46,0,1,1,2.46-2.46A2.46,2.46,0,0,1,164.5,199.25Z"/></svg>